<svg xmlns="http://www.w3.org/2000/svg" width="96" height="96" viewBox="0 0 96 96" version="1.1"><path d="M 29.250 41.989 C 25.481 44.287, 24.800 46.564, 28.250 45.331 C 29.488 44.889, 32.075 44.527, 34 44.527 C 35.925 44.527, 38.513 44.889, 39.750 45.331 C 43.200 46.564, 42.519 44.287, 38.750 41.989 C 34.685 39.511, 33.315 39.511, 29.250 41.989 M 57.250 41.989 C 53.481 44.287, 52.800 46.564, 56.250 45.331 C 57.487 44.889, 60.075 44.527, 62 44.527 C 63.925 44.527, 66.513 44.889, 67.750 45.331 C 71.200 46.564, 70.519 44.287, 66.750 41.989 C 62.685 39.511, 61.315 39.511, 57.250 41.989 M 30 58.204 C 30 62.086, 40.808 67.949, 48 67.968 C 55.241 67.988, 66.982 61.445, 65.842 58.025 C 65.627 57.381, 64.138 57.922, 62.210 59.345 C 53.748 65.588, 41.520 65.205, 32.250 58.406 C 30.379 57.034, 30 57, 30 58.204" stroke="none" fill="#2a261d" fill-rule="evenodd"/><path d="M 36.844 13.337 C 26.823 17.073, 20.209 22.876, 15.248 32.287 C 12.756 37.014, 12.500 38.478, 12.500 48 C 12.500 58.045, 12.647 58.772, 15.899 64.768 C 19.813 71.986, 24.702 76.762, 32.214 80.704 C 36.962 83.196, 38.518 83.480, 47.500 83.489 C 56.228 83.499, 58.215 83.165, 63.120 80.865 C 71.030 77.156, 76.447 71.870, 80.240 64.158 C 83.265 58.008, 83.499 56.810, 83.489 47.515 C 83.480 38.517, 83.197 36.963, 80.704 32.214 C 76.748 24.676, 71.969 19.797, 64.768 15.944 C 59.211 12.971, 57.479 12.556, 49.500 12.282 C 43.641 12.081, 39.224 12.449, 36.844 13.337 M 29.250 41.989 C 25.481 44.287, 24.800 46.564, 28.250 45.331 C 29.488 44.889, 32.075 44.527, 34 44.527 C 35.925 44.527, 38.513 44.889, 39.750 45.331 C 43.200 46.564, 42.519 44.287, 38.750 41.989 C 34.685 39.511, 33.315 39.511, 29.250 41.989 M 57.250 41.989 C 53.481 44.287, 52.800 46.564, 56.250 45.331 C 57.487 44.889, 60.075 44.527, 62 44.527 C 63.925 44.527, 66.513 44.889, 67.750 45.331 C 71.200 46.564, 70.519 44.287, 66.750 41.989 C 62.685 39.511, 61.315 39.511, 57.250 41.989 M 30 58.204 C 30 62.086, 40.808 67.949, 48 67.968 C 55.241 67.988, 66.982 61.445, 65.842 58.025 C 65.627 57.381, 64.138 57.922, 62.210 59.345 C 53.748 65.588, 41.520 65.205, 32.250 58.406 C 30.379 57.034, 30 57, 30 58.204" stroke="none" fill="#f8c629" fill-rule="evenodd"/></svg>